<?xml version="1.0" encoding="UTF-8" standalone="no"?>
<!-- Created with Inkscape (http://www.inkscape.org/) -->

<svg
   width="95.573578mm"
   height="142.53661mm"
   viewBox="0 0 95.573578 142.53661"
   version="1.1"
   id="svg1"
   xml:space="preserve"
   inkscape:export-filename="bitmap.svg"
   inkscape:export-xdpi="96"
   inkscape:export-ydpi="96"
   xmlns:inkscape="http://www.inkscape.org/namespaces/inkscape"
   xmlns:sodipodi="http://sodipodi.sourceforge.net/DTD/sodipodi-0.dtd"
   xmlns="http://www.w3.org/2000/svg"
   xmlns:svg="http://www.w3.org/2000/svg"><sodipodi:namedview
     id="namedview1"
     pagecolor="#ffffff"
     bordercolor="#000000"
     borderopacity="0.25"
     inkscape:showpageshadow="2"
     inkscape:pageopacity="0.0"
     inkscape:pagecheckerboard="0"
     inkscape:deskcolor="#d1d1d1"
     inkscape:document-units="mm" /><defs
     id="defs1" /><g
     inkscape:label="Layer 1"
     inkscape:groupmode="layer"
     id="layer1"
     transform="translate(-46.768438,-79.794599)"><g
       id="g155"
       transform="translate(-41.810146,-120.86975)"><g
         id="g108"
         transform="translate(-5.0585097,95.600696)"><g
           id="g107"><path
             style="fill:#334195;fill-opacity:1"
             d="m 178.30436,216.77063 c -1.95683,-0.26615 -9.45598,-1.21635 -14.2875,-1.81033 -2.91042,-0.35781 -7.07761,-0.89085 -9.26042,-1.18454 -2.18281,-0.29368 -5.87375,-0.7778 -8.20208,-1.0758 -2.32834,-0.29801 -4.41193,-0.59001 -4.63021,-0.6489 -0.21828,-0.0589 -2.30188,-0.35402 -4.63021,-0.65586 -2.32833,-0.30184 -5.36443,-0.72068 -6.74687,-0.93075 -1.38245,-0.21007 -3.19816,-0.45349 -4.0349,-0.54094 l -1.52135,-0.15899 v -48.93719 c 0,-38.90757 0.0678,-48.96247 0.33072,-49.06053 0.57012,-0.21261 7.87537,-1.20441 10.76973,-1.46215 1.52135,-0.13548 3.42635,-0.36537 4.23334,-0.51087 0.80699,-0.1455 3.25319,-0.44594 5.436,-0.66764 2.18281,-0.22171 4.80219,-0.5161 5.82083,-0.6542 2.31702,-0.31413 4.47762,-0.56715 5.7161,-0.66937 1.40481,-0.11595 4.27041,-0.43691 4.78636,-0.53609 0.24656,-0.0474 1.25859,-0.15888 2.24896,-0.24775 0.99036,-0.0889 2.04134,-0.21148 2.3355,-0.27248 0.29417,-0.061 1.24667,-0.1764 2.11667,-0.25646 1.68185,-0.15477 2.78828,-0.27951 6.8735,-0.77492 0.43656,-0.0529 1.57588,-0.23771 2.53182,-0.4106 0.95594,-0.17289 2.20609,-0.2761 2.77812,-0.22937 l 1.04006,0.085 0.0821,1.29328 0.0821,1.29328 1.76995,-0.16591 c 2.28145,-0.21385 4.06913,-0.44171 4.46259,-0.56881 0.17126,-0.0553 0.44417,0.0594 0.60646,0.25495 0.33706,0.40613 0.21267,106.48896 -0.12551,107.03614 -0.12548,0.20303 -0.53078,0.25261 -1.15432,0.1412 -2.23999,-0.40021 -3.39814,-0.42546 -4.37857,-0.0954 -0.87858,0.29572 -1.08111,0.50997 -1.33019,1.40717 -0.29057,1.04663 -0.30836,1.05869 -1.60945,1.0906 -0.7236,0.0178 -1.67283,-0.0163 -2.10939,-0.0757 z"
             id="path104" /><g
             id="g106"
             transform="matrix(1.0021871,0,0,1,-0.40936662,0.03307291)"><path
               style="opacity:1;fill:#334195;fill-opacity:1;stroke:none;stroke-width:0.111468;stroke-dasharray:none"
               d="m 183.28686,107.64202 5.67061,-0.72227 v 0.34694 l -5.59209,0.53536 z"
               id="path105" /><path
               style="opacity:1;fill:#334195;fill-opacity:1;stroke:none;stroke-width:0.112;stroke-dasharray:none"
               d="m 188.95747,107.26669 -0.046,0.0301 -0.12782,-0.0135 0.005,-0.0506 0.14677,-0.002 z"
               id="path106" /></g></g><path
           style="opacity:1;fill:#334195;fill-opacity:1;stroke:none;stroke-width:0.112;stroke-dasharray:none"
           d="m 168.34326,106.53269 9.38434,-1.14625 -0.21554,0.80977 c 0,0 -6.99243,0.57295 -7.14444,0.61973 -0.15201,0.0468 -2.02436,-0.28325 -2.02436,-0.28325 z"
           id="path107" /></g><path
         style="fill:#ffffff;fill-opacity:1;stroke:none;stroke-width:0.107282;stroke-dasharray:none"
         d="m 177.1533,204.77747 5.74926,0.32281 v 104.99463 c 0,0 -2.89357,-0.40648 -3.39871,-0.37274 -0.50514,0.0337 -2.09872,0.0886 -2.53882,1.3403 v 0"
         id="path108" /><path
         style="fill:none;stroke:#000000;stroke-width:0.112;stroke-dasharray:none"
         d="m 176.95002,200.7606 0.1642,2.58656 -0.14959,108.00934 v 0"
         id="path109" /><path
         style="fill:none;stroke:#000000;stroke-width:0.112;stroke-dasharray:none"
         d="m 183.95322,202.86739 -0.12551,107.03614 v 0"
         id="path110" /><path
         style="fill:none;stroke:#000000;stroke-width:0.0499999;stroke-dasharray:none"
         d="m 177.48593,204.79373 -0.11796,105.6618"
         id="path111"
         sodipodi:nodetypes="cc" /><path
         style="fill:none;stroke:#000000;stroke-width:0.0499999;stroke-dasharray:none"
         d="M 179.1815,204.88109 V 309.75591"
         id="path112"
         sodipodi:nodetypes="cc" /><path
         style="opacity:0.625373;fill:none;stroke:#000000;stroke-width:0.0499999;stroke-dasharray:none"
         d="M 179.73204,204.90945 V 309.72217"
         id="path113"
         sodipodi:nodetypes="cc" /><path
         style="fill:none;stroke:#000000;stroke-width:0.0499999;stroke-dasharray:none"
         d="m 180.79038,204.96397 -0.009,104.79194"
         id="path114"
         sodipodi:nodetypes="cc" /><path
         style="opacity:0.323881;fill:none;stroke:#000000;stroke-width:0.0499999;stroke-dasharray:none"
         d="m 181.31955,204.99123 0.002,104.84083"
         id="path115"
         sodipodi:nodetypes="cc" /><path
         style="opacity:0.668657;fill:none;stroke:#000000;stroke-width:0.0499999;stroke-dasharray:none"
         d="m 180.26121,204.93671 0.002,104.78546"
         id="path116"
         sodipodi:nodetypes="cc" /><path
         style="opacity:0.192537;fill:none;stroke:#000000;stroke-width:0.0499999;stroke-dasharray:none"
         d="m 178.12316,204.82656 -0.0306,105.19404"
         id="path117"
         sodipodi:nodetypes="cc" /><path
         style="opacity:0.323881;fill:none;stroke:#000000;stroke-width:0.0499999;stroke-dasharray:none"
         d="m 178.65233,204.85382 0.001,104.99294"
         id="path118"
         sodipodi:nodetypes="cc" /><path
         style="opacity:0.668657;fill:none;stroke:#000000;stroke-width:0.0499999;stroke-dasharray:none"
         d="m 181.84872,205.0185 -0.0104,104.8851"
         id="path119"
         sodipodi:nodetypes="cc" /><path
         style="opacity:0.383582;fill:none;stroke:#000000;stroke-width:0.0499999;stroke-dasharray:none"
         d="m 182.37789,205.04576 -0.005,104.94638"
         id="path120"
         sodipodi:nodetypes="cc" /><path
         style="fill:none;stroke:#000000;stroke-width:0.0499999;stroke-dasharray:none"
         d="m 182.90706,205.07302 -0.009,105.00613"
         id="path121"
         sodipodi:nodetypes="cc" /><path
         style="opacity:0.625373;fill:none;stroke:#000000;stroke-width:0.03;stroke-dasharray:none"
         d="m 177.17022,204.77747 5.73684,0.29555"
         id="path122"
         sodipodi:nodetypes="cc" /><path
         style="fill:none;stroke:#000000;stroke-width:0.112;stroke-dasharray:none"
         d="m 120.26303,207.3675 c 0,0 -0.11583,0.40533 -0.15265,1.89825 -0.0368,1.49292 -0.0646,3.18975 -0.0646,3.18975 l -0.11348,92.90972"
         id="path123" /><path
         style="fill:none;stroke:#000000;stroke-width:0.112;stroke-dasharray:none"
         d="m 176.96463,311.3565 -0.2849,1.03121 -1.73655,0.0641 -55.01088,-7.0866"
         id="path124" /><path
         style="fill:none;stroke:#000000;stroke-width:0.08;stroke-dasharray:none"
         d="m 120.26303,207.3675 53.97589,-6.61045 2.7111,0.004 v 0"
         id="path125" /><path
         style="fill:none;stroke:#000000;stroke-width:0.112;stroke-dasharray:none"
         d="m 183.95322,202.86739 v -0.34694 l -6.839,0.82671"
         id="path126" /><path
         style="fill:none;stroke:#000000;stroke-width:0.112;stroke-dasharray:none"
         d="m 176.96463,311.3565 c 0,0 -0.0727,-1.37108 2.21687,-1.60059"
         id="path127" /><path
         style="fill:none;stroke:#000000;stroke-width:0.112;stroke-dasharray:none"
         d="m 183.82771,309.90353 c 0,0 -0.18151,0.29991 -0.92965,0.17562 -0.74814,-0.1243 -2.11668,-0.32324 -2.11668,-0.32324 0,0 -1.2485,-0.0762 -1.59988,0"
         id="path128" /><g
         id="g133"
         transform="translate(-5.0585097,95.600696)"
         style="fill:#a7cecb;fill-opacity:1"><g
           id="g132"
           style="fill:#a7cecb;fill-opacity:1"><path
             style="fill:#a7cecb;fill-opacity:1"
             d="m 178.30436,216.77063 c -1.95683,-0.26615 -9.45598,-1.21635 -14.2875,-1.81033 -2.91042,-0.35781 -7.07761,-0.89085 -9.26042,-1.18454 -2.18281,-0.29368 -5.87375,-0.7778 -8.20208,-1.0758 -2.32834,-0.29801 -4.41193,-0.59001 -4.63021,-0.6489 -0.21828,-0.0589 -2.30188,-0.35402 -4.63021,-0.65586 -2.32833,-0.30184 -5.36443,-0.72068 -6.74687,-0.93075 -1.38245,-0.21007 -3.19816,-0.45349 -4.0349,-0.54094 l -1.52135,-0.15899 v -48.93719 c 0,-38.90757 0.0678,-48.96247 0.33072,-49.06053 0.57012,-0.21261 7.87537,-1.20441 10.76973,-1.46215 1.52135,-0.13548 3.42635,-0.36537 4.23334,-0.51087 0.80699,-0.1455 3.25319,-0.44594 5.436,-0.66764 2.18281,-0.22171 4.80219,-0.5161 5.82083,-0.6542 2.31702,-0.31413 4.47762,-0.56715 5.7161,-0.66937 1.40481,-0.11595 4.27041,-0.43691 4.78636,-0.53609 0.24656,-0.0474 1.25859,-0.15888 2.24896,-0.24775 0.99036,-0.0889 2.04134,-0.21148 2.3355,-0.27248 0.29417,-0.061 1.24667,-0.1764 2.11667,-0.25646 1.68185,-0.15477 2.78828,-0.27951 6.8735,-0.77492 0.43656,-0.0529 1.57588,-0.23771 2.53182,-0.4106 0.95594,-0.17289 2.20609,-0.2761 2.77812,-0.22937 l 1.04006,0.085 0.0821,1.29328 0.0821,1.29328 1.76995,-0.16591 c 2.28145,-0.21385 4.06913,-0.44171 4.46259,-0.56881 0.17126,-0.0553 0.44417,0.0594 0.60646,0.25495 0.33706,0.40613 0.21267,106.48896 -0.12551,107.03614 -0.12548,0.20303 -0.53078,0.25261 -1.15432,0.1412 -2.23999,-0.40021 -3.39814,-0.42546 -4.37857,-0.0954 -0.87858,0.29572 -1.08111,0.50997 -1.33019,1.40717 -0.29057,1.04663 -0.30836,1.05869 -1.60945,1.0906 -0.7236,0.0178 -1.67283,-0.0163 -2.10939,-0.0757 z"
             id="path129" /><g
             id="g131"
             transform="matrix(1.0021871,0,0,1,-0.40936662,0.03307291)"
             style="fill:#a7cecb;fill-opacity:1"><path
               style="opacity:1;fill:#a7cecb;fill-opacity:1;stroke:none;stroke-width:0.111468;stroke-dasharray:none"
               d="m 183.28686,107.64202 5.67061,-0.72227 v 0.34694 l -5.59209,0.53536 z"
               id="path130" /><path
               style="opacity:1;fill:#a7cecb;fill-opacity:1;stroke:none;stroke-width:0.112;stroke-dasharray:none"
               d="m 188.95747,107.26669 -0.046,0.0301 -0.12782,-0.0135 0.005,-0.0506 0.14677,-0.002 z"
               id="path131" /></g></g><path
           style="opacity:1;fill:#a7cecb;fill-opacity:1;stroke:none;stroke-width:0.112;stroke-dasharray:none"
           d="m 168.34326,106.53269 9.38434,-1.14625 -0.21554,0.80977 c 0,0 -6.99243,0.57295 -7.14444,0.61973 -0.15201,0.0468 -2.02436,-0.28325 -2.02436,-0.28325 z"
           id="path132" /></g><path
         style="fill:#ffffff;fill-opacity:1;stroke:none;stroke-width:0.107282;stroke-dasharray:none"
         d="m 177.1533,204.77747 5.74926,0.32281 v 104.99463 c 0,0 -2.89357,-0.40648 -3.39871,-0.37274 -0.50514,0.0337 -2.09872,0.0886 -2.53882,1.3403 v 0"
         id="path133" /><path
         style="fill:none;stroke:#000000;stroke-width:0.112;stroke-dasharray:none"
         d="m 176.95002,200.7606 0.1642,2.58656 -0.14959,108.00934 v 0"
         id="path134" /><path
         style="fill:none;stroke:#000000;stroke-width:0.112;stroke-dasharray:none"
         d="m 183.95322,202.86739 -0.12551,107.03614 v 0"
         id="path135" /><path
         style="fill:none;stroke:#000000;stroke-width:0.0499999;stroke-dasharray:none"
         d="m 177.48593,204.79373 -0.11796,105.6618"
         id="path136"
         sodipodi:nodetypes="cc" /><path
         style="fill:none;stroke:#000000;stroke-width:0.0499999;stroke-dasharray:none"
         d="M 179.1815,204.88109 V 309.75591"
         id="path137"
         sodipodi:nodetypes="cc" /><path
         style="opacity:0.625373;fill:none;stroke:#000000;stroke-width:0.0499999;stroke-dasharray:none"
         d="M 179.73204,204.90945 V 309.72217"
         id="path138"
         sodipodi:nodetypes="cc" /><path
         style="fill:none;stroke:#000000;stroke-width:0.0499999;stroke-dasharray:none"
         d="m 180.79038,204.96397 -0.009,104.79194"
         id="path139"
         sodipodi:nodetypes="cc" /><path
         style="opacity:0.323881;fill:none;stroke:#000000;stroke-width:0.0499999;stroke-dasharray:none"
         d="m 181.31955,204.99123 0.002,104.84083"
         id="path140"
         sodipodi:nodetypes="cc" /><path
         style="opacity:0.668657;fill:none;stroke:#000000;stroke-width:0.0499999;stroke-dasharray:none"
         d="m 180.26121,204.93671 0.002,104.78546"
         id="path141"
         sodipodi:nodetypes="cc" /><path
         style="opacity:0.192537;fill:none;stroke:#000000;stroke-width:0.0499999;stroke-dasharray:none"
         d="m 178.12316,204.82656 -0.0306,105.19404"
         id="path142"
         sodipodi:nodetypes="cc" /><path
         style="opacity:0.323881;fill:none;stroke:#000000;stroke-width:0.0499999;stroke-dasharray:none"
         d="m 178.65233,204.85382 0.001,104.99294"
         id="path143"
         sodipodi:nodetypes="cc" /><path
         style="opacity:0.668657;fill:none;stroke:#000000;stroke-width:0.0499999;stroke-dasharray:none"
         d="m 181.84872,205.0185 -0.0104,104.8851"
         id="path144"
         sodipodi:nodetypes="cc" /><path
         style="opacity:0.383582;fill:none;stroke:#000000;stroke-width:0.0499999;stroke-dasharray:none"
         d="m 182.37789,205.04576 -0.005,104.94638"
         id="path145"
         sodipodi:nodetypes="cc" /><path
         style="fill:none;stroke:#000000;stroke-width:0.0499999;stroke-dasharray:none"
         d="m 182.90706,205.07302 -0.009,105.00613"
         id="path146"
         sodipodi:nodetypes="cc" /><path
         style="opacity:0.625373;fill:none;stroke:#000000;stroke-width:0.03;stroke-dasharray:none"
         d="m 177.17022,204.77747 5.73684,0.29555"
         id="path147"
         sodipodi:nodetypes="cc" /><path
         style="fill:none;stroke:#000000;stroke-width:0.112;stroke-dasharray:none"
         d="m 120.26303,207.3675 c 0,0 -0.11583,0.40533 -0.15265,1.89825 -0.0368,1.49292 -0.0646,3.18975 -0.0646,3.18975 l -0.11348,92.90972"
         id="path148" /><path
         style="fill:none;stroke:#000000;stroke-width:0.112;stroke-dasharray:none"
         d="m 176.96463,311.3565 -0.2849,1.03121 -1.73655,0.0641 -55.01088,-7.0866"
         id="path149" /><path
         style="fill:none;stroke:#000000;stroke-width:0.08;stroke-dasharray:none"
         d="m 120.26303,207.3675 53.97589,-6.61045 2.7111,0.004 v 0"
         id="path150" /><path
         style="fill:none;stroke:#000000;stroke-width:0.112;stroke-dasharray:none"
         d="m 183.95322,202.86739 v -0.34694 l -6.839,0.82671"
         id="path151" /><path
         style="fill:none;stroke:#000000;stroke-width:0.112;stroke-dasharray:none"
         d="m 176.96463,311.3565 c 0,0 -0.0727,-1.37108 2.21687,-1.60059"
         id="path152" /><path
         style="fill:none;stroke:#000000;stroke-width:0.112;stroke-dasharray:none"
         d="m 183.82771,309.90353 c 0,0 -0.18151,0.29991 -0.92965,0.17562 -0.74814,-0.1243 -2.11668,-0.32324 -2.11668,-0.32324 0,0 -1.2485,-0.0762 -1.59988,0"
         id="path153" /></g><g
       id="g153"
       transform="translate(-50.339013,18.67333)"><path
         style="opacity:0.625373;fill:none;stroke:#000000;stroke-width:0.03;stroke-dasharray:none"
         d="m 104.06236,114.60073 5.73684,0.29555"
         id="path18"
         sodipodi:nodetypes="cc" /><path
         style="fill:none;stroke:#000000;stroke-width:0.112;stroke-dasharray:none"
         d="m 110.84536,112.69065 v -0.34694 l -6.839,0.82671"
         id="path22" /><path
         style="opacity:0.625373;fill:none;stroke:#000000;stroke-width:0.03;stroke-dasharray:none"
         d="m 104.06236,114.60073 5.73684,0.29555"
         id="path47"
         sodipodi:nodetypes="cc" /><path
         style="fill:none;stroke:#000000;stroke-width:0.112;stroke-dasharray:none"
         d="m 110.84536,112.69065 v -0.34694 l -6.839,0.82671"
         id="path51" /><g
         id="g58"
         transform="translate(-12.1785,-28.172836)"><g
           id="g57"><path
             style="fill:#334195;fill-opacity:1"
             d="m 178.30436,216.77063 c -1.95683,-0.26615 -9.45598,-1.21635 -14.2875,-1.81033 -2.91042,-0.35781 -7.07761,-0.89085 -9.26042,-1.18454 -2.18281,-0.29368 -5.87375,-0.7778 -8.20208,-1.0758 -2.32834,-0.29801 -4.41193,-0.59001 -4.63021,-0.6489 -0.21828,-0.0589 -2.30188,-0.35402 -4.63021,-0.65586 -2.32833,-0.30184 -5.36443,-0.72068 -6.74687,-0.93075 -1.38245,-0.21007 -3.19816,-0.45349 -4.0349,-0.54094 l -1.52135,-0.15899 v -48.93719 c 0,-38.90757 0.0678,-48.96247 0.33072,-49.06053 0.57012,-0.21261 7.87537,-1.20441 10.76973,-1.46215 1.52135,-0.13548 3.42635,-0.36537 4.23334,-0.51087 0.80699,-0.1455 3.25319,-0.44594 5.436,-0.66764 2.18281,-0.22171 4.80219,-0.5161 5.82083,-0.6542 2.31702,-0.31413 4.47762,-0.56715 5.7161,-0.66937 1.40481,-0.11595 4.27041,-0.43691 4.78636,-0.53609 0.24656,-0.0474 1.25859,-0.15888 2.24896,-0.24775 0.99036,-0.0889 2.04134,-0.21148 2.3355,-0.27248 0.29417,-0.061 1.24667,-0.1764 2.11667,-0.25646 1.68185,-0.15477 2.78828,-0.27951 6.8735,-0.77492 0.43656,-0.0529 1.57588,-0.23771 2.53182,-0.4106 0.95594,-0.17289 2.20609,-0.2761 2.77812,-0.22937 l 1.04006,0.085 0.0821,1.29328 0.0821,1.29328 1.76995,-0.16591 c 2.28145,-0.21385 4.06913,-0.44171 4.46259,-0.56881 0.17126,-0.0553 0.44417,0.0594 0.60646,0.25495 0.33706,0.40613 0.21267,106.48896 -0.12551,107.03614 -0.12548,0.20303 -0.53078,0.25261 -1.15432,0.1412 -2.23999,-0.40021 -3.39814,-0.42546 -4.37857,-0.0954 -0.87858,0.29572 -1.08111,0.50997 -1.33019,1.40717 -0.29057,1.04663 -0.30836,1.05869 -1.60945,1.0906 -0.7236,0.0178 -1.67283,-0.0163 -2.10939,-0.0757 z"
             id="path54" /><g
             id="g56"
             transform="matrix(1.0021871,0,0,1,-0.40936662,0.03307291)"><path
               style="opacity:1;fill:#334195;fill-opacity:1;stroke:none;stroke-width:0.111468;stroke-dasharray:none"
               d="m 183.28686,107.64202 5.67061,-0.72227 v 0.34694 l -5.59209,0.53536 z"
               id="path55" /><path
               style="opacity:1;fill:#334195;fill-opacity:1;stroke:none;stroke-width:0.112;stroke-dasharray:none"
               d="m 188.95747,107.26669 -0.046,0.0301 -0.12782,-0.0135 0.005,-0.0506 0.14677,-0.002 z"
               id="path56" /></g></g><path
           style="opacity:1;fill:#334195;fill-opacity:1;stroke:none;stroke-width:0.112;stroke-dasharray:none"
           d="m 168.34326,106.53269 9.38434,-1.14625 -0.21554,0.80977 c 0,0 -6.99243,0.57295 -7.14444,0.61973 -0.15201,0.0468 -2.02436,-0.28325 -2.02436,-0.28325 z"
           id="path57" /></g><path
         style="fill:#ffffff;fill-opacity:1;stroke:none;stroke-width:0.107282;stroke-dasharray:none"
         d="m 170.03331,81.003936 5.74926,0.32281 V 186.32137 c 0,0 -2.89357,-0.40648 -3.39871,-0.37274 -0.50514,0.0337 -2.09872,0.0886 -2.53882,1.3403 v 0"
         id="path58" /><path
         style="fill:none;stroke:#000000;stroke-width:0.112;stroke-dasharray:none"
         d="m 169.83003,76.987066 0.1642,2.58656 -0.14959,108.009334 v 0"
         id="path59" /><path
         style="fill:none;stroke:#000000;stroke-width:0.112;stroke-dasharray:none"
         d="m 176.83323,79.093856 -0.12551,107.036134 v 0"
         id="path60" /><path
         style="fill:none;stroke:#000000;stroke-width:0.0499999;stroke-dasharray:none"
         d="M 170.36594,81.020196 170.24798,186.68199"
         id="path61"
         sodipodi:nodetypes="cc" /><path
         style="fill:none;stroke:#000000;stroke-width:0.0499999;stroke-dasharray:none"
         d="M 172.06151,81.107556 V 185.98237"
         id="path62"
         sodipodi:nodetypes="cc" /><path
         style="opacity:0.625373;fill:none;stroke:#000000;stroke-width:0.0499999;stroke-dasharray:none"
         d="M 172.61205,81.135916 V 185.94863"
         id="path63"
         sodipodi:nodetypes="cc" /><path
         style="fill:none;stroke:#000000;stroke-width:0.0499999;stroke-dasharray:none"
         d="m 173.67039,81.190436 -0.009,104.791934"
         id="path64"
         sodipodi:nodetypes="cc" /><path
         style="opacity:0.323881;fill:none;stroke:#000000;stroke-width:0.0499999;stroke-dasharray:none"
         d="m 174.19956,81.217696 0.002,104.840824"
         id="path65"
         sodipodi:nodetypes="cc" /><path
         style="opacity:0.668657;fill:none;stroke:#000000;stroke-width:0.0499999;stroke-dasharray:none"
         d="m 173.14122,81.163176 0.002,104.785454"
         id="path66"
         sodipodi:nodetypes="cc" /><path
         style="opacity:0.192537;fill:none;stroke:#000000;stroke-width:0.0499999;stroke-dasharray:none"
         d="m 171.00317,81.053026 -0.0306,105.194034"
         id="path67"
         sodipodi:nodetypes="cc" /><path
         style="opacity:0.323881;fill:none;stroke:#000000;stroke-width:0.0499999;stroke-dasharray:none"
         d="m 171.53234,81.080286 0.001,104.992934"
         id="path68"
         sodipodi:nodetypes="cc" /><path
         style="opacity:0.668657;fill:none;stroke:#000000;stroke-width:0.0499999;stroke-dasharray:none"
         d="m 174.72873,81.244966 -0.0104,104.885094"
         id="path69"
         sodipodi:nodetypes="cc" /><path
         style="opacity:0.383582;fill:none;stroke:#000000;stroke-width:0.0499999;stroke-dasharray:none"
         d="M 175.2579,81.272226 175.2529,186.2186"
         id="path70"
         sodipodi:nodetypes="cc" /><path
         style="fill:none;stroke:#000000;stroke-width:0.0499999;stroke-dasharray:none"
         d="m 175.78707,81.299486 -0.009,105.006124"
         id="path71"
         sodipodi:nodetypes="cc" /><path
         style="opacity:0.625373;fill:none;stroke:#000000;stroke-width:0.03;stroke-dasharray:none"
         d="m 170.05023,81.003936 5.73684,0.29555"
         id="path72"
         sodipodi:nodetypes="cc" /><path
         style="fill:none;stroke:#000000;stroke-width:0.112;stroke-dasharray:none"
         d="m 113.14304,83.593966 c 0,0 -0.11583,0.40533 -0.15265,1.898246 -0.0368,1.49292 -0.0646,3.18975 -0.0646,3.18975 l -0.11348,92.909718"
         id="path73" /><path
         style="fill:none;stroke:#000000;stroke-width:0.112;stroke-dasharray:none"
         d="m 169.84464,187.58296 -0.2849,1.03121 -1.73655,0.0641 -55.01088,-7.0866"
         id="path74" /><path
         style="fill:none;stroke:#000000;stroke-width:0.08;stroke-dasharray:none"
         d="m 113.14304,83.593966 53.97589,-6.61045 2.7111,0.004 v 0"
         id="path75" /><path
         style="fill:none;stroke:#000000;stroke-width:0.112;stroke-dasharray:none"
         d="m 176.83323,79.093856 v -0.34694 l -6.839,0.82671"
         id="path76" /><path
         style="fill:none;stroke:#000000;stroke-width:0.112;stroke-dasharray:none"
         d="m 169.84464,187.58296 c 0,0 -0.0727,-1.37108 2.21687,-1.60059"
         id="path77" /><path
         style="fill:none;stroke:#000000;stroke-width:0.112;stroke-dasharray:none"
         d="m 176.70772,186.12999 c 0,0 -0.18151,0.29991 -0.92965,0.17562 -0.74814,-0.1243 -2.11668,-0.32324 -2.11668,-0.32324 0,0 -1.2485,-0.0762 -1.59988,0"
         id="path78" /><g
         id="g83"
         transform="translate(-12.1785,-28.172836)"
         style="fill:#95bce5;fill-opacity:1"><g
           id="g82"
           style="fill:#95bce5;fill-opacity:1"><path
             style="fill:#95bce5;fill-opacity:1"
             d="m 178.30436,216.77063 c -1.95683,-0.26615 -9.45598,-1.21635 -14.2875,-1.81033 -2.91042,-0.35781 -7.07761,-0.89085 -9.26042,-1.18454 -2.18281,-0.29368 -5.87375,-0.7778 -8.20208,-1.0758 -2.32834,-0.29801 -4.41193,-0.59001 -4.63021,-0.6489 -0.21828,-0.0589 -2.30188,-0.35402 -4.63021,-0.65586 -2.32833,-0.30184 -5.36443,-0.72068 -6.74687,-0.93075 -1.38245,-0.21007 -3.19816,-0.45349 -4.0349,-0.54094 l -1.52135,-0.15899 v -48.93719 c 0,-38.90757 0.0678,-48.96247 0.33072,-49.06053 0.57012,-0.21261 7.87537,-1.20441 10.76973,-1.46215 1.52135,-0.13548 3.42635,-0.36537 4.23334,-0.51087 0.80699,-0.1455 3.25319,-0.44594 5.436,-0.66764 2.18281,-0.22171 4.80219,-0.5161 5.82083,-0.6542 2.31702,-0.31413 4.47762,-0.56715 5.7161,-0.66937 1.40481,-0.11595 4.27041,-0.43691 4.78636,-0.53609 0.24656,-0.0474 1.25859,-0.15888 2.24896,-0.24775 0.99036,-0.0889 2.04134,-0.21148 2.3355,-0.27248 0.29417,-0.061 1.24667,-0.1764 2.11667,-0.25646 1.68185,-0.15477 2.78828,-0.27951 6.8735,-0.77492 0.43656,-0.0529 1.57588,-0.23771 2.53182,-0.4106 0.95594,-0.17289 2.20609,-0.2761 2.77812,-0.22937 l 1.04006,0.085 0.0821,1.29328 0.0821,1.29328 1.76995,-0.16591 c 2.28145,-0.21385 4.06913,-0.44171 4.46259,-0.56881 0.17126,-0.0553 0.44417,0.0594 0.60646,0.25495 0.33706,0.40613 0.21267,106.48896 -0.12551,107.03614 -0.12548,0.20303 -0.53078,0.25261 -1.15432,0.1412 -2.23999,-0.40021 -3.39814,-0.42546 -4.37857,-0.0954 -0.87858,0.29572 -1.08111,0.50997 -1.33019,1.40717 -0.29057,1.04663 -0.30836,1.05869 -1.60945,1.0906 -0.7236,0.0178 -1.67283,-0.0163 -2.10939,-0.0757 z"
             id="path79" /><g
             id="g81"
             transform="matrix(1.0021871,0,0,1,-0.40936662,0.03307291)"
             style="fill:#95bce5;fill-opacity:1"><path
               style="opacity:1;fill:#95bce5;fill-opacity:1;stroke:none;stroke-width:0.111468;stroke-dasharray:none"
               d="m 183.28686,107.64202 5.67061,-0.72227 v 0.34694 l -5.59209,0.53536 z"
               id="path80" /><path
               style="opacity:1;fill:#95bce5;fill-opacity:1;stroke:none;stroke-width:0.112;stroke-dasharray:none"
               d="m 188.95747,107.26669 -0.046,0.0301 -0.12782,-0.0135 0.005,-0.0506 0.14677,-0.002 z"
               id="path81" /></g></g><path
           style="opacity:1;fill:#95bce5;fill-opacity:1;stroke:none;stroke-width:0.112;stroke-dasharray:none"
           d="m 168.34326,106.53269 9.38434,-1.14625 -0.21554,0.80977 c 0,0 -6.99243,0.57295 -7.14444,0.61973 -0.15201,0.0468 -2.02436,-0.28325 -2.02436,-0.28325 z"
           id="path82" /></g><path
         style="fill:#ffffff;fill-opacity:1;stroke:none;stroke-width:0.107282;stroke-dasharray:none"
         d="m 170.03331,81.003936 5.74926,0.32281 V 186.32137 c 0,0 -2.89357,-0.40648 -3.39871,-0.37274 -0.50514,0.0337 -2.09872,0.0886 -2.53882,1.3403 v 0"
         id="path83" /><path
         style="fill:none;stroke:#000000;stroke-width:0.112;stroke-dasharray:none"
         d="m 169.83003,76.987066 0.1642,2.58656 -0.14959,108.009334 v 0"
         id="path84" /><path
         style="fill:none;stroke:#000000;stroke-width:0.112;stroke-dasharray:none"
         d="m 176.83323,79.093856 -0.12551,107.036134 v 0"
         id="path85" /><path
         style="fill:none;stroke:#000000;stroke-width:0.0499999;stroke-dasharray:none"
         d="M 170.36594,81.020196 170.24798,186.68199"
         id="path86"
         sodipodi:nodetypes="cc" /><path
         style="fill:none;stroke:#000000;stroke-width:0.0499999;stroke-dasharray:none"
         d="M 172.06151,81.107556 V 185.98237"
         id="path87"
         sodipodi:nodetypes="cc" /><path
         style="opacity:0.625373;fill:none;stroke:#000000;stroke-width:0.0499999;stroke-dasharray:none"
         d="M 172.61205,81.135916 V 185.94863"
         id="path88"
         sodipodi:nodetypes="cc" /><path
         style="fill:none;stroke:#000000;stroke-width:0.0499999;stroke-dasharray:none"
         d="m 173.67039,81.190436 -0.009,104.791934"
         id="path89"
         sodipodi:nodetypes="cc" /><path
         style="opacity:0.323881;fill:none;stroke:#000000;stroke-width:0.0499999;stroke-dasharray:none"
         d="m 174.19956,81.217696 0.002,104.840824"
         id="path90"
         sodipodi:nodetypes="cc" /><path
         style="opacity:0.668657;fill:none;stroke:#000000;stroke-width:0.0499999;stroke-dasharray:none"
         d="m 173.14122,81.163176 0.002,104.785454"
         id="path91"
         sodipodi:nodetypes="cc" /><path
         style="opacity:0.192537;fill:none;stroke:#000000;stroke-width:0.0499999;stroke-dasharray:none"
         d="m 171.00317,81.053026 -0.0306,105.194034"
         id="path92"
         sodipodi:nodetypes="cc" /><path
         style="opacity:0.323881;fill:none;stroke:#000000;stroke-width:0.0499999;stroke-dasharray:none"
         d="m 171.53234,81.080286 0.001,104.992934"
         id="path93"
         sodipodi:nodetypes="cc" /><path
         style="opacity:0.668657;fill:none;stroke:#000000;stroke-width:0.0499999;stroke-dasharray:none"
         d="m 174.72873,81.244966 -0.0104,104.885094"
         id="path94"
         sodipodi:nodetypes="cc" /><path
         style="opacity:0.383582;fill:none;stroke:#000000;stroke-width:0.0499999;stroke-dasharray:none"
         d="M 175.2579,81.272226 175.2529,186.2186"
         id="path95"
         sodipodi:nodetypes="cc" /><path
         style="fill:none;stroke:#000000;stroke-width:0.0499999;stroke-dasharray:none"
         d="m 175.78707,81.299486 -0.009,105.006124"
         id="path96"
         sodipodi:nodetypes="cc" /><path
         style="opacity:0.625373;fill:none;stroke:#000000;stroke-width:0.03;stroke-dasharray:none"
         d="m 170.05023,81.003936 5.73684,0.29555"
         id="path97"
         sodipodi:nodetypes="cc" /><path
         style="fill:none;stroke:#000000;stroke-width:0.112;stroke-dasharray:none"
         d="m 113.14304,83.593966 c 0,0 -0.11583,0.40533 -0.15265,1.898246 -0.0368,1.49292 -0.0646,3.18975 -0.0646,3.18975 l -0.11348,92.909718"
         id="path98" /><path
         style="fill:none;stroke:#000000;stroke-width:0.112;stroke-dasharray:none"
         d="m 169.84464,187.58296 -0.2849,1.03121 -1.73655,0.0641 -55.01088,-7.0866"
         id="path99" /><path
         style="fill:none;stroke:#000000;stroke-width:0.08;stroke-dasharray:none"
         d="m 113.14304,83.593966 53.97589,-6.61045 2.7111,0.004 v 0"
         id="path100" /><path
         style="fill:none;stroke:#000000;stroke-width:0.112;stroke-dasharray:none"
         d="m 176.83323,79.093856 v -0.34694 l -6.839,0.82671"
         id="path101" /><path
         style="fill:none;stroke:#000000;stroke-width:0.112;stroke-dasharray:none"
         d="m 169.84464,187.58296 c 0,0 -0.0727,-1.37108 2.21687,-1.60059"
         id="path102" /><path
         style="fill:none;stroke:#000000;stroke-width:0.112;stroke-dasharray:none"
         d="m 176.70772,186.12999 c 0,0 -0.18151,0.29991 -0.92965,0.17562 -0.74814,-0.1243 -2.11668,-0.32324 -2.11668,-0.32324 0,0 -1.2485,-0.0762 -1.59988,0"
         id="path103" /></g><g
       id="g154"><g
         id="g29"
         transform="translate(-78.166366,5.4239583)"><g
           id="g27"><path
             style="fill:#334195;fill-opacity:1"
             d="m 178.30436,216.77063 c -1.95683,-0.26615 -9.45598,-1.21635 -14.2875,-1.81033 -2.91042,-0.35781 -7.07761,-0.89085 -9.26042,-1.18454 -2.18281,-0.29368 -5.87375,-0.7778 -8.20208,-1.0758 -2.32834,-0.29801 -4.41193,-0.59001 -4.63021,-0.6489 -0.21828,-0.0589 -2.30188,-0.35402 -4.63021,-0.65586 -2.32833,-0.30184 -5.36443,-0.72068 -6.74687,-0.93075 -1.38245,-0.21007 -3.19816,-0.45349 -4.0349,-0.54094 l -1.52135,-0.15899 v -48.93719 c 0,-38.90757 0.0678,-48.96247 0.33072,-49.06053 0.57012,-0.21261 7.87537,-1.20441 10.76973,-1.46215 1.52135,-0.13548 3.42635,-0.36537 4.23334,-0.51087 0.80699,-0.1455 3.25319,-0.44594 5.436,-0.66764 2.18281,-0.22171 4.80219,-0.5161 5.82083,-0.6542 2.31702,-0.31413 4.47762,-0.56715 5.7161,-0.66937 1.40481,-0.11595 4.27041,-0.43691 4.78636,-0.53609 0.24656,-0.0474 1.25859,-0.15888 2.24896,-0.24775 0.99036,-0.0889 2.04134,-0.21148 2.3355,-0.27248 0.29417,-0.061 1.24667,-0.1764 2.11667,-0.25646 1.68185,-0.15477 2.78828,-0.27951 6.8735,-0.77492 0.43656,-0.0529 1.57588,-0.23771 2.53182,-0.4106 0.95594,-0.17289 2.20609,-0.2761 2.77812,-0.22937 l 1.04006,0.085 0.0821,1.29328 0.0821,1.29328 1.76995,-0.16591 c 2.28145,-0.21385 4.06913,-0.44171 4.46259,-0.56881 0.17126,-0.0553 0.44417,0.0594 0.60646,0.25495 0.33706,0.40613 0.21267,106.48896 -0.12551,107.03614 -0.12548,0.20303 -0.53078,0.25261 -1.15432,0.1412 -2.23999,-0.40021 -3.39814,-0.42546 -4.37857,-0.0954 -0.87858,0.29572 -1.08111,0.50997 -1.33019,1.40717 -0.29057,1.04663 -0.30836,1.05869 -1.60945,1.0906 -0.7236,0.0178 -1.67283,-0.0163 -2.10939,-0.0757 z"
             id="path1" /><g
             id="g26"
             transform="matrix(1.0021871,0,0,1,-0.40936662,0.03307291)"><path
               style="opacity:1;fill:#334195;fill-opacity:1;stroke:none;stroke-width:0.111468;stroke-dasharray:none"
               d="m 183.28686,107.64202 5.67061,-0.72227 v 0.34694 l -5.59209,0.53536 z"
               id="path25" /><path
               style="opacity:1;fill:#334195;fill-opacity:1;stroke:none;stroke-width:0.112;stroke-dasharray:none"
               d="m 188.95747,107.26669 -0.046,0.0301 -0.12782,-0.0135 0.005,-0.0506 0.14677,-0.002 z"
               id="path26" /></g></g><path
           style="opacity:1;fill:#334195;fill-opacity:1;stroke:none;stroke-width:0.112;stroke-dasharray:none"
           d="m 168.34326,106.53269 9.38434,-1.14625 -0.21554,0.80977 c 0,0 -6.99243,0.57295 -7.14444,0.61973 -0.15201,0.0468 -2.02436,-0.28325 -2.02436,-0.28325 z"
           id="path27" /></g><path
         style="fill:#ffffff;fill-opacity:1;stroke:none;stroke-width:0.107282;stroke-dasharray:none"
         d="m 104.04544,114.60073 5.74926,0.32281 v 104.99463 c 0,0 -2.89357,-0.40648 -3.39871,-0.37274 -0.50514,0.0337 -2.09872,0.0886 -2.53882,1.3403 v 0"
         id="path28" /><path
         style="fill:none;stroke:#000000;stroke-width:0.112;stroke-dasharray:none"
         d="m 103.84216,110.58386 0.1642,2.58656 -0.14959,108.00934 v 0"
         id="path3" /><path
         style="fill:none;stroke:#000000;stroke-width:0.112;stroke-dasharray:none"
         d="m 110.84536,112.69065 -0.12551,107.03614 v 0"
         id="path4" /><path
         style="fill:none;stroke:#000000;stroke-width:0.0499999;stroke-dasharray:none"
         d="m 104.37807,114.61699 -0.11796,105.6618"
         id="path6"
         sodipodi:nodetypes="cc" /><path
         style="fill:none;stroke:#000000;stroke-width:0.0499999;stroke-dasharray:none"
         d="M 106.07364,114.70435 V 219.57917"
         id="path7"
         sodipodi:nodetypes="cc" /><path
         style="opacity:0.625373;fill:none;stroke:#000000;stroke-width:0.0499999;stroke-dasharray:none"
         d="M 106.62418,114.73271 V 219.54543"
         id="path8"
         sodipodi:nodetypes="cc" /><path
         style="fill:none;stroke:#000000;stroke-width:0.0499999;stroke-dasharray:none"
         d="m 107.68252,114.78723 -0.009,104.79194"
         id="path9"
         sodipodi:nodetypes="cc" /><path
         style="opacity:0.323881;fill:none;stroke:#000000;stroke-width:0.0499999;stroke-dasharray:none"
         d="m 108.21169,114.81449 0.002,104.84083"
         id="path10"
         sodipodi:nodetypes="cc" /><path
         style="opacity:0.668657;fill:none;stroke:#000000;stroke-width:0.0499999;stroke-dasharray:none"
         d="m 107.15335,114.75997 0.002,104.78546"
         id="path11"
         sodipodi:nodetypes="cc" /><path
         style="opacity:0.192537;fill:none;stroke:#000000;stroke-width:0.0499999;stroke-dasharray:none"
         d="m 105.0153,114.64982 -0.0306,105.19404"
         id="path12"
         sodipodi:nodetypes="cc" /><path
         style="opacity:0.323881;fill:none;stroke:#000000;stroke-width:0.0499999;stroke-dasharray:none"
         d="m 105.54447,114.67708 10e-4,104.99294"
         id="path13"
         sodipodi:nodetypes="cc" /><path
         style="opacity:0.668657;fill:none;stroke:#000000;stroke-width:0.0499999;stroke-dasharray:none"
         d="m 108.74086,114.84176 -0.0104,104.8851"
         id="path14"
         sodipodi:nodetypes="cc" /><path
         style="opacity:0.383582;fill:none;stroke:#000000;stroke-width:0.0499999;stroke-dasharray:none"
         d="m 109.27003,114.86902 -0.005,104.94638"
         id="path15"
         sodipodi:nodetypes="cc" /><path
         style="fill:none;stroke:#000000;stroke-width:0.0499999;stroke-dasharray:none"
         d="m 109.7992,114.89628 -0.009,105.00613"
         id="path16"
         sodipodi:nodetypes="cc" /><path
         style="fill:none;stroke:#000000;stroke-width:0.112;stroke-dasharray:none"
         d="m 47.15517,117.19076 c 0,0 -0.11583,0.40533 -0.15265,1.89825 -0.0368,1.49292 -0.0646,3.18975 -0.0646,3.18975 l -0.11348,92.90972"
         id="path19" /><path
         style="fill:none;stroke:#000000;stroke-width:0.112;stroke-dasharray:none"
         d="m 103.85677,221.17976 -0.2849,1.03121 -1.73655,0.0641 -55.01088,-7.0866"
         id="path20" /><path
         style="fill:none;stroke:#000000;stroke-width:0.08;stroke-dasharray:none"
         d="m 47.15517,117.19076 53.97589,-6.61045 2.7111,0.004 v 0"
         id="path21" /><path
         style="fill:none;stroke:#000000;stroke-width:0.112;stroke-dasharray:none"
         d="m 103.85677,221.17976 c 0,0 -0.0727,-1.37108 2.21687,-1.60059"
         id="path23" /><path
         style="fill:none;stroke:#000000;stroke-width:0.112;stroke-dasharray:none"
         d="m 110.71985,219.72679 c 0,0 -0.18151,0.29991 -0.92965,0.17562 -0.74814,-0.1243 -2.11668,-0.32324 -2.11668,-0.32324 0,0 -1.2485,-0.0762 -1.59988,0"
         id="path24" /><g
         id="g33"
         transform="translate(-78.166366,5.4239583)"><g
           id="g32"><path
             style="fill:#334195;fill-opacity:1"
             d="m 178.30436,216.77063 c -1.95683,-0.26615 -9.45598,-1.21635 -14.2875,-1.81033 -2.91042,-0.35781 -7.07761,-0.89085 -9.26042,-1.18454 -2.18281,-0.29368 -5.87375,-0.7778 -8.20208,-1.0758 -2.32834,-0.29801 -4.41193,-0.59001 -4.63021,-0.6489 -0.21828,-0.0589 -2.30188,-0.35402 -4.63021,-0.65586 -2.32833,-0.30184 -5.36443,-0.72068 -6.74687,-0.93075 -1.38245,-0.21007 -3.19816,-0.45349 -4.0349,-0.54094 l -1.52135,-0.15899 v -48.93719 c 0,-38.90757 0.0678,-48.96247 0.33072,-49.06053 0.57012,-0.21261 7.87537,-1.20441 10.76973,-1.46215 1.52135,-0.13548 3.42635,-0.36537 4.23334,-0.51087 0.80699,-0.1455 3.25319,-0.44594 5.436,-0.66764 2.18281,-0.22171 4.80219,-0.5161 5.82083,-0.6542 2.31702,-0.31413 4.47762,-0.56715 5.7161,-0.66937 1.40481,-0.11595 4.27041,-0.43691 4.78636,-0.53609 0.24656,-0.0474 1.25859,-0.15888 2.24896,-0.24775 0.99036,-0.0889 2.04134,-0.21148 2.3355,-0.27248 0.29417,-0.061 1.24667,-0.1764 2.11667,-0.25646 1.68185,-0.15477 2.78828,-0.27951 6.8735,-0.77492 0.43656,-0.0529 1.57588,-0.23771 2.53182,-0.4106 0.95594,-0.17289 2.20609,-0.2761 2.77812,-0.22937 l 1.04006,0.085 0.0821,1.29328 0.0821,1.29328 1.76995,-0.16591 c 2.28145,-0.21385 4.06913,-0.44171 4.46259,-0.56881 0.17126,-0.0553 0.44417,0.0594 0.60646,0.25495 0.33706,0.40613 0.21267,106.48896 -0.12551,107.03614 -0.12548,0.20303 -0.53078,0.25261 -1.15432,0.1412 -2.23999,-0.40021 -3.39814,-0.42546 -4.37857,-0.0954 -0.87858,0.29572 -1.08111,0.50997 -1.33019,1.40717 -0.29057,1.04663 -0.30836,1.05869 -1.60945,1.0906 -0.7236,0.0178 -1.67283,-0.0163 -2.10939,-0.0757 z"
             id="path29" /><g
             id="g31"
             transform="matrix(1.0021871,0,0,1,-0.40936662,0.03307291)"><path
               style="opacity:1;fill:#334195;fill-opacity:1;stroke:none;stroke-width:0.111468;stroke-dasharray:none"
               d="m 183.28686,107.64202 5.67061,-0.72227 v 0.34694 l -5.59209,0.53536 z"
               id="path30" /><path
               style="opacity:1;fill:#334195;fill-opacity:1;stroke:none;stroke-width:0.112;stroke-dasharray:none"
               d="m 188.95747,107.26669 -0.046,0.0301 -0.12782,-0.0135 0.005,-0.0506 0.14677,-0.002 z"
               id="path31" /></g></g><path
           style="opacity:1;fill:#334195;fill-opacity:1;stroke:none;stroke-width:0.112;stroke-dasharray:none"
           d="m 168.34326,106.53269 9.38434,-1.14625 -0.21554,0.80977 c 0,0 -6.99243,0.57295 -7.14444,0.61973 -0.15201,0.0468 -2.02436,-0.28325 -2.02436,-0.28325 z"
           id="path32" /></g><path
         style="fill:#ffffff;fill-opacity:1;stroke:none;stroke-width:0.107282;stroke-dasharray:none"
         d="m 104.04544,114.60073 5.74926,0.32281 v 104.99463 c 0,0 -2.89357,-0.40648 -3.39871,-0.37274 -0.50514,0.0337 -2.09872,0.0886 -2.53882,1.3403 v 0"
         id="path33" /><path
         style="fill:none;stroke:#000000;stroke-width:0.112;stroke-dasharray:none"
         d="m 103.84216,110.58386 0.1642,2.58656 -0.14959,108.00934 v 0"
         id="path34" /><path
         style="fill:none;stroke:#000000;stroke-width:0.112;stroke-dasharray:none"
         d="m 110.84536,112.69065 -0.12551,107.03614 v 0"
         id="path35" /><path
         style="fill:none;stroke:#000000;stroke-width:0.0499999;stroke-dasharray:none"
         d="m 104.37807,114.61699 -0.11796,105.6618"
         id="path36"
         sodipodi:nodetypes="cc" /><path
         style="fill:none;stroke:#000000;stroke-width:0.0499999;stroke-dasharray:none"
         d="M 106.07364,114.70435 V 219.57917"
         id="path37"
         sodipodi:nodetypes="cc" /><path
         style="opacity:0.625373;fill:none;stroke:#000000;stroke-width:0.0499999;stroke-dasharray:none"
         d="M 106.62418,114.73271 V 219.54543"
         id="path38"
         sodipodi:nodetypes="cc" /><path
         style="fill:none;stroke:#000000;stroke-width:0.0499999;stroke-dasharray:none"
         d="m 107.68252,114.78723 -0.009,104.79194"
         id="path39"
         sodipodi:nodetypes="cc" /><path
         style="opacity:0.323881;fill:none;stroke:#000000;stroke-width:0.0499999;stroke-dasharray:none"
         d="m 108.21169,114.81449 0.002,104.84083"
         id="path40"
         sodipodi:nodetypes="cc" /><path
         style="opacity:0.668657;fill:none;stroke:#000000;stroke-width:0.0499999;stroke-dasharray:none"
         d="m 107.15335,114.75997 0.002,104.78546"
         id="path41"
         sodipodi:nodetypes="cc" /><path
         style="opacity:0.192537;fill:none;stroke:#000000;stroke-width:0.0499999;stroke-dasharray:none"
         d="m 105.0153,114.64982 -0.0306,105.19404"
         id="path42"
         sodipodi:nodetypes="cc" /><path
         style="opacity:0.323881;fill:none;stroke:#000000;stroke-width:0.0499999;stroke-dasharray:none"
         d="m 105.54447,114.67708 10e-4,104.99294"
         id="path43"
         sodipodi:nodetypes="cc" /><path
         style="opacity:0.668657;fill:none;stroke:#000000;stroke-width:0.0499999;stroke-dasharray:none"
         d="m 108.74086,114.84176 -0.0104,104.8851"
         id="path44"
         sodipodi:nodetypes="cc" /><path
         style="opacity:0.383582;fill:none;stroke:#000000;stroke-width:0.0499999;stroke-dasharray:none"
         d="m 109.27003,114.86902 -0.005,104.94638"
         id="path45"
         sodipodi:nodetypes="cc" /><path
         style="fill:none;stroke:#000000;stroke-width:0.0499999;stroke-dasharray:none"
         d="m 109.7992,114.89628 -0.009,105.00613"
         id="path46"
         sodipodi:nodetypes="cc" /><path
         style="fill:none;stroke:#000000;stroke-width:0.112;stroke-dasharray:none"
         d="m 47.15517,117.19076 c 0,0 -0.11583,0.40533 -0.15265,1.89825 -0.0368,1.49292 -0.0646,3.18975 -0.0646,3.18975 l -0.11348,92.90972"
         id="path48" /><path
         style="fill:none;stroke:#000000;stroke-width:0.112;stroke-dasharray:none"
         d="m 103.85677,221.17976 -0.2849,1.03121 -1.73655,0.0641 -55.01088,-7.0866"
         id="path49" /><path
         style="fill:none;stroke:#000000;stroke-width:0.08;stroke-dasharray:none"
         d="m 47.15517,117.19076 53.97589,-6.61045 2.7111,0.004 v 0"
         id="path50" /><path
         style="fill:none;stroke:#000000;stroke-width:0.112;stroke-dasharray:none"
         d="m 103.85677,221.17976 c 0,0 -0.0727,-1.37108 2.21687,-1.60059"
         id="path52" /><path
         style="fill:none;stroke:#000000;stroke-width:0.112;stroke-dasharray:none"
         d="m 110.71985,219.72679 c 0,0 -0.18151,0.29991 -0.92965,0.17562 -0.74814,-0.1243 -2.11668,-0.32324 -2.11668,-0.32324 0,0 -1.2485,-0.0762 -1.59988,0"
         id="path53" /></g></g></svg>
